<svg xmlns="http://www.w3.org/2000/svg" viewBox="0 0 64 64">
  <defs>
    <linearGradient id="crust" x1="0" x2="0" y1="0" y2="1">
      <stop offset="0%" stop-color="#d08b30"/>
      <stop offset="100%" stop-color="#a55a16"/>
    </linearGradient>
    <linearGradient id="crumb" x1="0" x2="1" y1="0" y2="1">
      <stop offset="0%" stop-color="#f5e1b9"/>
      <stop offset="100%" stop-color="#e8c98f"/>
    </linearGradient>
  </defs>
  <rect width="64" height="64" rx="12" fill="#fff7e3"/>
  <g transform="translate(6 14)">
    <path d="M52 26c0 9-9 14-26 14S0 44 0 26 9 0 26 0s26 9 26 26z" fill="url(#crumb)" stroke="#c27a22" stroke-width="2"/>
    <path d="M48 24c0 7-8 12-22 12S4 38 4 24 12 4 26 4s22 7 22 20z" fill="url(#crust)" opacity="0.85"/>
    <path d="M18 10c-2 2-3 5-3 8" stroke="#7a420d" stroke-width="2" stroke-linecap="round"/>
    <path d="M28 9c-2 2-3 5-3 8" stroke="#7a420d" stroke-width="2" stroke-linecap="round"/>
    <path d="M38 11c-2 2-3 5-3 8" stroke="#7a420d" stroke-width="2" stroke-linecap="round"/>
  </g>
</svg>
